<?xml version="1.0" encoding="utf-8"?>
<!-- Svg Vector Icons : http://www.onlinewebfonts.com/icon -->
<!DOCTYPE svg PUBLIC "-//W3C//DTD SVG 1.1//EN" "http://www.w3.org/Graphics/SVG/1.1/DTD/svg11.dtd">
<svg version="1.1" xmlns="http://www.w3.org/2000/svg" xmlns:xlink="http://www.w3.org/1999/xlink" x="0px" y="0px" viewBox="0 0 1000 1000" enable-background="new 0 0 1000 1000" xml:space="preserve">
<metadata> Svg Vector Icons : http://www.onlinewebfonts.com/icon </metadata>
<g><g><g><path d="M989.5,512.5C980.6,391.9,869,291.9,751.7,304c-60.2-285-518-239-494.3,45.2C131.8,322.4,5.4,431.1,10.1,558.3c5.8,153.5,159.2,140.3,271.2,126.2c11.4,58.6,64.3,91.3,126.4,69.2c16.1-5.7,9.5-27.6-6.9-25.1c-52.8,5.8-80-16.3-81.7-66.3c0-9.9-9.1-21.4-20.1-20.1c-78.5,9.4-208.9,45.1-243.3-53.4c-52-148.7,111.9-204.5,223.6-199.4c18.9,0.9,20.7-23.8,6.3-31.4c6.6-108.6,69.6-185.6,180.1-207.7C585.2,126.5,691,202.2,713.6,319c0.5,2.9,1.6,5.2,2.9,7.2c1.8,6.8,7.9,12.7,16.2,13.3c-0.2,0.3-0.4,0.5-0.6,0.8c63.3-0.2,102.5,2.1,151.8,49.1c32.8,31.3,54.3,70.6,64,114.5c8.9,40.4-1.9,84.6-28.4,115.9c-30.6,36.1-78.3,32-120.5,30.9c-5.9-0.2-10.1,2.3-13.1,5.9c-17.7,16.7-35.3,32.5-56.3,45c-12.9,7.6-27.6,11-42.3,11.9c-13.5,0.8-23.7-3.7-37-0.2c-11.4,2.9-14.5,17.3-6.7,25.5c21.7,23,65.7,15.6,91.4,2.6c25.1-12.6,45.3-31.7,57.6-56.2c0.6,0.2,1.1,0.7,1.7,0.9C910.9,719,997.7,625.2,989.5,512.5z"/><path d="M671.6,573.7c0.9-3.8,0.6-8.1-2-12.6c-34.8-60.1-76.4-115-121.3-167.9c-4.9-5.7-15.2-6.8-21.3-2.7c-61.9,40.9-122.7,97.9-163.4,160.2c-3.6,5.6-1.8,11.6,2,15.7c-7.5,4-6.6,18.1,2.8,21.4c13.2,4.7,26.7,6.7,40.6,8.4c15.6,1.9,35.9,6.4,50.9,1.1c-8.9,44.1-11.1,89.1-12,134c-0.4,22.5-1.4,47-0.4,71.2c-2.5,2-3.7,5.9-0.8,8.3c0.5,0.4,0.9,0.7,1.4,1.1c1.3,20.1,4,39.7,9.8,57.6c1.6,4.8,6.1,7.8,10.9,8.7c0.4,0.7,0.7,1.3,1.3,1.9c11.9,12.1,37.9,7.3,52.8,5.9c10.7-1,24-0.7,33.6-6c1.2,0,2.3-0.3,3.3-1c8.4,5.1,21.5,2.9,24.8-8.7c15.9-56.2,14-120.7,12.5-178.6c-0.5-20.8,0.8-66.9-12-93.6c0,0,0,0,0.1,0c14.6,2.8,29.5,4,44.4,4.4c15.6,0.4,39.8,3.4,45.3-15.6C676,582.5,674.7,577.3,671.6,573.7z M532.6,429.3c33.5,40.3,64.5,82.2,92.1,126.8c-4.3-3.7-9-7-13.2-10.3c-16.5-13-32.9-26.1-49.4-39.2c-15.8-12.5-31.7-25.1-46.9-38.4c-2.9-2.5-10-7.9-16.1-13.7C510,445.8,521.2,437.3,532.6,429.3z M414.5,568.5c-9.7,0-19.4-0.8-29.1-1.8c10.3-12.4,21.1-24.6,32.4-36.6c11.2,14.5,25.2,27,39.9,38.6C444.3,564.8,428.4,568.5,414.5,568.5z M428.3,519.2c4-4.1,8.2-8.1,12.2-12.1c23.6,17.7,47.3,35.2,71.4,52.1c14.8,10.4,32.5,26.1,50.9,34.3c-1.6,6.8-2.3,14.4-2.4,22.5c-11.9-8.9-26-16.3-31.1-19.7C495.5,573.7,455.8,550.3,428.3,519.2z M483.1,863.1c0.9-7.5,1.2-15,1.3-22.6c5.9,4.4,11.8,8.8,17.9,13c2.7,1.8,5.5,3.8,8.4,5.7C501.5,860.7,492.3,861.9,483.1,863.1z M553.1,853c-5.1-1.1-10.4-0.6-15.8,0.5c-9.2-4.4-18.7-8.5-27.3-13.4c-8.8-5.1-17.4-10.5-25.9-16.2c-0.6-13.5-1.8-27.1-3.1-40.6c18,15.4,34.5,32.9,52.3,48.4c3.7,3.2,12.4,9.2,20.5,12C553.7,846.8,553.3,849.9,553.1,853z M555.4,823.8C555.3,823.8,555.3,823.8,555.4,823.8c-3.8-2.5-7.5-5.4-11-8.2c-9-7-17.7-14.5-26.4-21.9c-12.5-10.6-25.1-21.6-38.6-31.1c-0.4-4.5-0.7-9-1-13.5c-0.5-8.9-0.8-17.9-1.1-26.8c15.6,12,30.5,24.9,45.9,37.2c10.7,8.6,22.5,20.1,35.9,25.4C557.7,797.9,556.5,810.8,555.4,823.8z M560.8,766.5c-27-18.9-55.2-37.8-83.9-54.2c-0.6-23.1-0.4-46.1,0.5-69.1c10.6,19,27.4,34.7,43.2,48.9c10.5,9.4,27.6,28.1,43.6,30.7C563.3,737.3,562.2,751.9,560.8,766.5z M565,702.4c-2.2-1.7-4.5-3.5-5.9-4.4c-10.2-6.4-20-13.6-29.4-21.1c-17.5-13.8-38-30-48.3-50.2c-0.7-1.4-1.8-2.1-3.1-2.4c0.5-9.2,1.2-18.5,2-27.8c0.5-6.2-4.7-9.6-9.9-9.7c0.8-3,0.4-6.1-0.8-8.9c5.8,4.4,11.6,8.8,17.3,13.1c15.9,12.2,32,24.1,47.8,36.4c5.8,4.5,11.5,9.2,17.1,14c9.3,7.9,6.2,7,7.5-1.5c-0.6,3.9,0.8,7.3,3.2,9.6c1.5,15.7,3.2,30.8,3.1,42.4C565.4,695.4,565.1,698.9,565,702.4z M577.1,573.6c-16.3-12.4-39.2-21.1-55.4-31.1c-23.9-14.7-47.3-30.3-70.6-45.9c11.6-11.1,23.6-21.8,35.8-32c11,15.3,29.6,29.1,39.3,38c17.5,16,35.7,31.2,53.6,46.7c7.8,6.8,16.5,17.3,25.9,25.4C596.1,574.9,586.4,574.6,577.1,573.6z"/></g></g><g></g><g></g><g></g><g></g><g></g><g></g><g></g><g></g><g></g><g></g><g></g><g></g><g></g><g></g><g></g></g>
</svg>