<?xml version="1.0" encoding="utf-8"?>
<!-- Generator: Adobe Illustrator 17.1.0, SVG Export Plug-In . SVG Version: 6.00 Build 0)  -->
<!DOCTYPE svg PUBLIC "-//W3C//DTD SVG 1.1//EN" "http://www.w3.org/Graphics/SVG/1.1/DTD/svg11.dtd">
<svg version="1.1" id="Layer_1" xmlns="http://www.w3.org/2000/svg" xmlns:xlink="http://www.w3.org/1999/xlink" x="0px" y="0px"
	 viewBox="0 0 46.165 46.165" enable-background="new 0 0 46.165 46.165" xml:space="preserve">
<g>
	<path opacity="0.1" fill="#FFFFFF" d="M31.527,19.806c0-6.463-5.258-11.721-11.721-11.721c-3.367,0-6.399,1.436-8.539,3.717
		L27.81,28.345C30.092,26.205,31.527,23.174,31.527,19.806z"/>
	<path opacity="0.2" fill="#FFFFFF" d="M8.085,19.806c0,6.463,5.258,11.721,11.721,11.721c3.096,0,5.907-1.215,8.004-3.182
		L11.267,11.802C9.3,13.9,8.085,16.711,8.085,19.806z"/>
	<path fill="#36BEEB" d="M30.642,31.177l-2.832-2.832c-2.097,1.967-4.908,3.182-8.004,3.182c-6.463,0-11.721-5.258-11.721-11.721
		c0-3.096,1.215-5.907,3.182-8.004L8.435,8.97L5.613,6.148c-3.415,3.547-5.528,8.357-5.528,13.658
		c0,10.874,8.847,19.721,19.721,19.721c3.993,0,7.707-1.201,10.815-3.249l8.633,8.634c0.781,0.781,1.805,1.172,2.829,1.172
		c0.904,0,1.798-0.323,2.534-0.931L30.642,31.177z"/>
	<path opacity="0.8" fill="#36BEEB" d="M44.912,39.255l-8.634-8.634c2.048-3.109,3.249-6.822,3.249-10.815
		c0-10.875-8.847-19.721-19.721-19.721c-5.573,0-10.603,2.333-14.193,6.063L8.435,8.97l2.832,2.832
		c2.14-2.281,5.171-3.717,8.539-3.717c6.463,0,11.721,5.258,11.721,11.721c0,3.367-1.436,6.399-3.717,8.539l2.832,2.832
		l13.975,13.975c0.098-0.081,0.203-0.149,0.294-0.24C46.474,43.35,46.474,40.817,44.912,39.255z"/>
</g>
</svg>
